<?xml version="1.0" encoding="UTF-8"?>
<!DOCTYPE svg PUBLIC "-//W3C//DTD SVG 1.1//EN" "http://www.w3.org/Graphics/SVG/1.1/DTD/svg11.dtd">
<svg xmlns="http://www.w3.org/2000/svg" version="1.1" width="738px" height="298px" style="shape-rendering:geometricPrecision; text-rendering:geometricPrecision; image-rendering:optimizeQuality; fill-rule:evenodd; clip-rule:evenodd" xmlns:xlink="http://www.w3.org/1999/xlink">
<g><path style="opacity:1" fill="#fefefe" d="M -0.5,-0.5 C 245.5,-0.5 491.5,-0.5 737.5,-0.5C 737.5,98.8333 737.5,198.167 737.5,297.5C 491.5,297.5 245.5,297.5 -0.5,297.5C -0.5,198.167 -0.5,98.8333 -0.5,-0.5 Z"/></g>
<g><path style="opacity:1" fill="#939793" d="M 118.5,32.5 C 171.598,32.1579 210.098,55.4913 234,102.5C 252.397,154.536 241.564,199.37 201.5,237C 161.198,267.41 118.198,271.743 72.5,250C 28.9625,223.094 9.12916,183.927 13,132.5C 25.0548,74.6081 60.2215,41.2748 118.5,32.5 Z"/></g>
<g><path style="opacity:1" fill="#fdfdfd" d="M 113.5,43.5 C 149.19,40.5598 179.69,51.5598 205,76.5C 236.034,113.828 241.034,154.495 220,198.5C 196.177,237.332 161.343,255.499 115.5,253C 62.8876,243.388 32.0543,212.221 23,159.5C 20.912,105.609 44.7453,68.4422 94.5,48C 100.924,46.3088 107.258,44.8088 113.5,43.5 Z"/></g>
<g><path style="opacity:1" fill="#69696b" d="M 122.5,84.5 C 125.85,84.335 129.183,84.5017 132.5,85C 133.167,86.3333 133.833,87.6667 134.5,89C 140.674,90.1672 146.34,92.5006 151.5,96C 154.2,96.2532 156.867,96.2532 159.5,96C 161,97.5 162.5,99 164,100.5C 164,103.167 164,105.833 164,108.5C 167.588,113.676 170.088,119.343 171.5,125.5C 172.328,126.415 173.328,127.081 174.5,127.5C 175.489,131.107 175.823,134.774 175.5,138.5C 171.828,138.183 170.162,139.849 170.5,143.5C 169.5,143.5 168.5,143.5 167.5,143.5C 166.715,139.404 167.882,136.07 171,133.5C 172.471,128.629 170.805,125.296 166,123.5C 156.638,98.0681 138.805,88.9015 112.5,96C 93.855,105.781 85.5217,121.281 87.5,142.5C 86.8333,142.833 86.1667,143.167 85.5,143.5C 84.9434,140.02 82.9434,138.353 79.5,138.5C 79.3347,134.818 79.5014,131.152 80,127.5C 81.3333,126.833 82.6667,126.167 84,125.5C 85.1672,119.326 87.5006,113.66 91,108.5C 91,105.833 91,103.167 91,100.5C 92.5,99 94,97.5 95.5,96C 98.133,96.2532 100.8,96.2532 103.5,96C 108.66,92.5006 114.326,90.1672 120.5,89C 121.267,87.5295 121.933,86.0295 122.5,84.5 Z"/></g>
<g><path style="opacity:1" fill="#929692" d="M 335.5,91.5 C 356.881,88.7717 372.881,96.605 383.5,115C 380.337,117.416 377.004,119.582 373.5,121.5C 363.754,105.523 349.754,100.023 331.5,105C 319.778,110.406 312.944,119.572 311,132.5C 310.333,142.833 310.333,153.167 311,163.5C 315.535,184.854 328.702,194.687 350.5,193C 368.774,188.64 376.108,177.14 372.5,158.5C 364.5,158.5 356.5,158.5 348.5,158.5C 348.5,154.5 348.5,150.5 348.5,146.5C 360.833,146.5 373.167,146.5 385.5,146.5C 385.5,165.5 385.5,184.5 385.5,203.5C 381.5,203.5 377.5,203.5 373.5,203.5C 373.666,198.156 373.499,192.823 373,187.5C 366.492,199.983 356.159,205.65 342,204.5C 327.494,204.747 315.828,199.081 307,187.5C 303.565,181.868 300.898,175.868 299,169.5C 297.411,156.557 297.078,143.557 298,130.5C 302.326,109.345 314.826,96.3455 335.5,91.5 Z"/></g>
<g><path style="opacity:1" fill="#929692" d="M 655.5,91.5 C 669.672,89.4627 682.672,92.296 694.5,100C 697.551,102.714 700.218,105.714 702.5,109C 699.456,111.612 696.289,114.112 693,116.5C 684.32,105.047 672.82,100.88 658.5,104C 646.846,106.457 642.012,113.624 644,125.5C 646.345,131.265 650.512,135.098 656.5,137C 667.799,139.322 678.799,142.655 689.5,147C 701.178,153.866 705.678,164.033 703,177.5C 700.286,191.881 691.786,200.715 677.5,204C 661.449,207.425 647.116,204.091 634.5,194C 631.6,191.603 629.267,188.77 627.5,185.5C 630.214,182.785 633.214,180.451 636.5,178.5C 645.949,189.726 657.949,194.559 672.5,193C 686.652,189.822 692.486,180.988 690,166.5C 688.167,162 685,158.833 680.5,157C 667.721,154.37 655.388,150.37 643.5,145C 632.299,137.414 628.132,126.914 631,113.5C 635.253,101.744 643.419,94.411 655.5,91.5 Z"/></g>
<g><path style="opacity:1" fill="#b0b2b0" d="M 412.5,93.5 C 412.5,129.833 412.5,166.167 412.5,202.5C 416.5,202.5 420.5,202.5 424.5,202.5C 424.17,186.991 424.504,171.658 425.5,156.5C 425.5,172.167 425.5,187.833 425.5,203.5C 420.833,203.5 416.167,203.5 411.5,203.5C 411.168,166.663 411.502,129.996 412.5,93.5 Z"/></g>
<g><path style="opacity:1" fill="#929692" d="M 412.5,93.5 C 429.837,93.3334 447.17,93.5001 464.5,94C 478.873,98.7162 486.206,108.716 486.5,124C 486.724,141.434 478.391,152.101 461.5,156C 449.505,156.5 437.505,156.667 425.5,156.5C 424.504,171.658 424.17,186.991 424.5,202.5C 420.5,202.5 416.5,202.5 412.5,202.5C 412.5,166.167 412.5,129.833 412.5,93.5 Z"/></g>
<g><path style="opacity:1" fill="#919591" d="M 507.5,93.5 C 513.537,93.1707 519.537,93.5041 525.5,94.5C 535.833,113.833 546.167,133.167 556.5,152.5C 567.254,133.326 577.754,113.993 588,94.5C 593.741,93.5251 599.575,93.1918 605.5,93.5C 605.5,129.833 605.5,166.167 605.5,202.5C 601.5,202.5 597.5,202.5 593.5,202.5C 593.833,171.826 593.5,141.159 592.5,110.5C 591.893,110.624 591.56,110.957 591.5,111.5C 580.665,133.323 568.998,154.656 556.5,175.5C 544.038,154.678 532.372,133.345 521.5,111.5C 521.44,110.957 521.107,110.624 520.5,110.5C 519.5,141.159 519.167,171.826 519.5,202.5C 515.5,202.5 511.5,202.5 507.5,202.5C 507.5,166.167 507.5,129.833 507.5,93.5 Z"/></g>
<g><path style="opacity:1" fill="#6b6b6d" d="M 120.5,97.5 C 141.441,95.8179 155.108,104.818 161.5,124.5C 159.856,124.714 158.356,124.38 157,123.5C 149.994,106.909 137.494,100.076 119.5,103C 101.804,109.872 94.4711,122.705 97.5,141.5C 96.1667,141.5 94.8333,141.5 93.5,141.5C 90.2925,119.235 99.2925,104.569 120.5,97.5 Z"/></g>
<g><path style="opacity:1" fill="#d4d6d4" d="M 458.5,105.5 C 447.5,105.5 436.5,105.5 425.5,105.5C 425.5,118.5 425.5,131.5 425.5,144.5C 424.504,131.344 424.171,118.01 424.5,104.5C 436.012,104.172 447.346,104.505 458.5,105.5 Z"/></g>
<g><path style="opacity:1" fill="#fefefe" d="M 458.5,105.5 C 464.727,105.692 468.894,108.692 471,114.5C 471.667,121.167 471.667,127.833 471,134.5C 469.833,139.667 466.667,142.833 461.5,144C 449.505,144.5 437.505,144.667 425.5,144.5C 425.5,131.5 425.5,118.5 425.5,105.5C 436.5,105.5 447.5,105.5 458.5,105.5 Z"/></g>
<g><path style="opacity:1" fill="#c6c8c6" d="M 507.5,93.5 C 507.5,129.833 507.5,166.167 507.5,202.5C 511.5,202.5 515.5,202.5 519.5,202.5C 519.167,171.826 519.5,141.159 520.5,110.5C 521.107,110.624 521.44,110.957 521.5,111.5C 520.502,141.995 520.169,172.662 520.5,203.5C 515.833,203.5 511.167,203.5 506.5,203.5C 506.168,166.663 506.502,129.996 507.5,93.5 Z"/></g>
<g><path style="opacity:1" fill="#b9bbb9" d="M 591.5,111.5 C 591.56,110.957 591.893,110.624 592.5,110.5C 593.5,141.159 593.833,171.826 593.5,202.5C 597.5,202.5 601.5,202.5 605.5,202.5C 601.366,203.485 597.032,203.818 592.5,203.5C 592.831,172.662 592.498,141.995 591.5,111.5 Z"/></g>
<g><path style="opacity:1" fill="#676769" d="M 123.5,111.5 C 124.833,111.5 126.167,111.5 127.5,111.5C 127.5,112.833 127.5,114.167 127.5,115.5C 126.167,115.5 124.833,115.5 123.5,115.5C 123.5,114.167 123.5,112.833 123.5,111.5 Z"/></g>
<g><path style="opacity:1" fill="#6c6c6e" d="M 116.5,113.5 C 118.121,113.787 119.121,114.787 119.5,116.5C 113.382,120.069 110.382,125.403 110.5,132.5C 108.833,132.5 107.167,132.5 105.5,132.5C 106.239,124.438 109.905,118.104 116.5,113.5 Z"/></g>
<g><path style="opacity:1" fill="#68686a" d="M 150.5,128.5 C 155.844,128.334 161.177,128.501 166.5,129C 167.833,130 167.833,131 166.5,132C 160.843,132.499 155.176,132.666 149.5,132.5C 149.433,131.041 149.766,129.708 150.5,128.5 Z"/></g>
<g><path style="opacity:1" fill="#626364" d="M 154.5,137.5 C 157.167,137.5 159.833,137.5 162.5,137.5C 162.5,138.833 162.5,140.167 162.5,141.5C 159.833,141.5 157.167,141.5 154.5,141.5C 154.5,140.167 154.5,138.833 154.5,137.5 Z"/></g>
<g><path style="opacity:1" fill="#676769" d="M 89.5,146.5 C 117.309,145.476 130.476,158.809 129,186.5C 120.72,208.555 105.22,216.055 82.5,209C 64.2516,197.673 59.4183,182.173 68,162.5C 73.1212,154.186 80.2878,148.852 89.5,146.5 Z"/></g>
<g><path style="opacity:1" fill="#6a6a6c" d="M 149.5,146.5 C 170.471,143.897 184.304,152.564 191,172.5C 192.565,191.589 184.398,204.423 166.5,211C 150.906,214.193 138.906,209.193 130.5,196C 130.878,194.365 131.544,192.865 132.5,191.5C 143.458,208.65 157.791,212.15 175.5,202C 187.527,190.529 189.694,177.363 182,162.5C 170.227,149.175 156.727,147.009 141.5,156C 138.462,158.703 135.795,161.703 133.5,165C 131.677,165.132 130.677,164.132 130.5,162C 131.317,160.51 132.15,159.01 133,157.5C 137.997,152.929 143.497,149.263 149.5,146.5 Z"/></g>
<g><path style="opacity:1" fill="#fafafa" d="M 90.5,152.5 C 114.605,152.099 125.105,163.765 122,187.5C 112.964,205.115 99.4642,209.615 81.5,201C 69.5661,190.183 67.3994,177.683 75,163.5C 79.1272,158.202 84.2939,154.535 90.5,152.5 Z"/></g>
<g><path style="opacity:1" fill="#666668" d="M 150.5,155.5 C 152.5,155.5 154.5,155.5 156.5,155.5C 156.5,156.833 156.5,158.167 156.5,159.5C 157.833,159.5 159.167,159.5 160.5,159.5C 160.5,158.167 160.5,156.833 160.5,155.5C 165.534,155.399 169.867,157.066 173.5,160.5C 170.757,162.698 170.923,164.698 174,166.5C 175,165.5 176,164.5 177,163.5C 179.947,167.39 181.78,171.723 182.5,176.5C 181.167,176.5 179.833,176.5 178.5,176.5C 178.5,178.167 178.5,179.833 178.5,181.5C 179.833,181.5 181.167,181.5 182.5,181.5C 181.544,186.198 179.711,190.532 177,194.5C 175.019,190.639 173.186,190.639 171.5,194.5C 172.167,195.5 172.833,196.5 173.5,197.5C 169.867,200.934 165.534,202.601 160.5,202.5C 160.5,201.167 160.5,199.833 160.5,198.5C 159.167,198.5 157.833,198.5 156.5,198.5C 156.5,199.833 156.5,201.167 156.5,202.5C 151.415,202.791 147.082,201.124 143.5,197.5C 146.243,195.302 146.077,193.302 143,191.5C 140.538,195.435 138.538,195.102 137,190.5C 135.57,187.647 134.737,184.647 134.5,181.5C 135.833,181.5 137.167,181.5 138.5,181.5C 138.5,179.833 138.5,178.167 138.5,176.5C 137.167,176.5 135.833,176.5 134.5,176.5C 134.687,171.461 136.52,167.128 140,163.5C 141.981,167.361 143.814,167.361 145.5,163.5C 144.167,162.38 143.667,161.047 144,159.5C 146.314,158.267 148.481,156.933 150.5,155.5 Z"/></g>
<g><path style="opacity:1" fill="#69696b" d="M 94.5,159.5 C 95.8333,159.5 97.1667,159.5 98.5,159.5C 98.3433,160.873 98.51,162.207 99,163.5C 102.983,165.299 105.149,168.299 105.5,172.5C 102.755,172.627 100.755,171.46 99.5,169C 93.9057,167.087 91.739,168.92 93,174.5C 95.8192,176.669 98.9859,178.169 102.5,179C 107.179,185.41 106.012,190.577 99,194.5C 98.51,195.793 98.3433,197.127 98.5,198.5C 97.1667,198.5 95.8333,198.5 94.5,198.5C 94.6567,197.127 94.49,195.793 94,194.5C 89.5234,192.214 87.6901,188.547 88.5,183.5C 89.8333,183.5 91.1667,183.5 92.5,183.5C 92.1803,188.575 94.5137,190.408 99.5,189C 101.602,187.267 101.935,185.267 100.5,183C 96.1308,181.733 92.2975,179.567 89,176.5C 87.2427,170.742 88.9094,166.408 94,163.5C 94.49,162.207 94.6567,160.873 94.5,159.5 Z"/></g>
<g><path style="opacity:1" fill="#f5f5f5" d="M 148.5,166.5 C 150.63,168.127 152.63,169.96 154.5,172C 165.048,172.594 167.215,177.094 161,185.5C 160.506,187.134 160.34,188.801 160.5,190.5C 159.167,190.5 157.833,190.5 156.5,190.5C 157.034,186.522 155.534,183.522 152,181.5C 151.667,179.167 151.333,176.833 151,174.5C 149.315,172.983 147.815,171.316 146.5,169.5C 147.193,168.482 147.859,167.482 148.5,166.5 Z"/></g>
<g><path style="opacity:1" fill="#737375" d="M 157.5,176.5 C 160.956,177.536 161.29,179.203 158.5,181.5C 156.296,180.218 155.962,178.551 157.5,176.5 Z"/></g>
</svg>
